<?xml version="1.0" standalone="no"?>
<!DOCTYPE svg PUBLIC "-//W3C//DTD SVG 20010904//EN"
 "http://www.w3.org/TR/2001/REC-SVG-20010904/DTD/svg10.dtd">
<svg version="1.0" xmlns="http://www.w3.org/2000/svg"
 width="328.000000pt" height="64.000000pt" viewBox="15 0 328.000000 64.000000"
 preserveAspectRatio="xMidYMid meet">

<g transform="translate(0.000000,64.000000) scale(0.100000,-0.100000)"
fill="#000000" stroke="none">
<path d="M1620 366 c0 -33 -2 -35 -37 -39 l-38 -4 38 -1 c36 -2 37 -3 37 -42
0 -22 5 -40 10 -40 6 0 10 18 10 39 0 39 1 40 38 44 l37 4 -37 1 c-36 2 -38 4
-38 37 0 19 -4 35 -10 35 -5 0 -10 -15 -10 -34z"/>
<path d="M270 311 c0 -70 1 -71 26 -71 47 0 64 17 64 63 0 55 -9 66 -53 74
l-37 6 0 -72z m68 3 c3 -32 -19 -61 -38 -49 -5 3 -10 24 -10 46 0 36 2 40 23
37 16 -2 23 -11 25 -34z"/>
<path d="M490 311 l0 -71 45 0 c52 0 61 17 13 22 -41 4 -45 32 -5 36 37 4 35
22 -3 22 -42 0 -40 28 3 32 46 4 39 22 -10 26 l-43 3 0 -70z"/>
<path d="M700 375 c0 -4 7 -19 16 -36 14 -28 14 -32 -6 -64 -18 -29 -19 -35
-6 -35 8 0 21 10 27 22 l12 22 17 -22 c17 -20 40 -30 40 -16 0 3 -9 19 -21 35
-19 28 -20 31 -5 54 24 37 19 52 -8 26 l-24 -23 -11 21 c-11 19 -31 29 -31 16z"/>
<path d="M915 369 c-4 -6 2 -13 14 -16 18 -5 21 -13 21 -59 0 -30 5 -54 10
-54 6 0 10 25 10 55 0 48 2 55 20 55 11 0 20 7 20 15 0 11 -12 15 -44 15 -25
0 -48 -5 -51 -11z"/>
<path d="M1130 311 l0 -71 45 0 c25 0 45 5 45 10 0 6 -13 10 -30 10 -23 0 -30
4 -30 20 0 15 7 20 25 20 14 0 25 5 25 10 0 6 -11 10 -25 10 -16 0 -25 6 -25
15 0 10 10 15 31 15 47 0 30 24 -19 28 l-42 3 0 -70z"/>
<path d="M1347 373 c-4 -3 -7 -35 -7 -70 0 -49 3 -63 15 -63 10 0 15 10 15 30
0 17 4 30 9 30 5 0 14 -13 21 -30 7 -16 19 -30 26 -30 17 0 17 2 3 34 -9 20
-9 29 0 40 17 20 5 53 -22 60 -29 8 -52 8 -60 -1z m63 -38 c0 -8 -9 -15 -20
-15 -11 0 -20 7 -20 15 0 8 9 15 20 15 11 0 20 -7 20 -15z"/>
<path d="M1842 364 c-16 -11 -22 -25 -22 -54 0 -61 41 -88 86 -56 24 18 10 34
-17 18 -28 -18 -39 -7 -39 40 l0 40 35 -6 c39 -8 42 -5 19 18 -19 20 -34 20
-62 0z"/>
<path d="M2046 373 c-3 -3 -6 -35 -6 -70 0 -49 3 -63 15 -63 10 0 15 10 15 30
0 23 4 30 20 30 16 0 20 -7 20 -30 0 -20 5 -30 15 -30 13 0 15 12 13 68 -3 65
-20 89 -26 37 -5 -35 -42 -35 -42 -1 0 26 -12 40 -24 29z"/>
<path d="M2307 373 c-15 -24 -48 -125 -43 -130 3 -4 14 1 24 10 24 22 42 21
58 0 21 -30 27 -7 10 45 -19 57 -40 89 -49 75z m23 -69 c0 -8 -6 -14 -14 -14
-9 0 -12 7 -9 20 6 22 23 18 23 -6z"/>
<path d="M2500 310 c0 -75 17 -97 22 -28 l3 42 28 -42 c15 -23 32 -42 38 -42
6 0 9 26 7 68 -3 68 -23 92 -23 27 0 -19 -2 -35 -5 -35 -3 0 -15 18 -28 40
-12 22 -27 40 -32 40 -6 0 -10 -31 -10 -70z"/>
<path d="M2737 373 c-4 -3 -7 -35 -7 -70 l0 -63 45 0 c25 0 45 5 45 10 0 6
-13 10 -30 10 -23 0 -30 4 -30 20 0 15 7 20 25 20 14 0 25 5 25 10 0 6 -11 10
-25 10 -16 0 -25 6 -25 15 0 10 10 15 30 15 20 0 30 5 30 15 0 11 -11 15 -38
15 -21 0 -42 -3 -45 -7z"/>
<path d="M2940 375 c0 -3 9 -23 20 -45 11 -22 20 -51 20 -65 0 -14 5 -25 10
-25 6 0 10 11 10 25 0 14 9 43 20 65 23 45 24 50 10 50 -6 0 -16 -11 -22 -25
-6 -14 -14 -25 -18 -25 -4 0 -12 11 -18 25 -10 22 -32 35 -32 20z"/>
</g>
</svg>
