<?xml version="1.0" encoding="UTF-8" standalone="no"?>
<!-- Generator: Adobe Illustrator 21.0.2, SVG Export Plug-In . SVG Version: 6.00 Build 0)  -->

<svg
   xmlns:dc="http://purl.org/dc/elements/1.1/"
   xmlns:cc="http://creativecommons.org/ns#"
   xmlns:rdf="http://www.w3.org/1999/02/22-rdf-syntax-ns#"
   xmlns:svg="http://www.w3.org/2000/svg"
   xmlns="http://www.w3.org/2000/svg"
   xmlns:sodipodi="http://sodipodi.sourceforge.net/DTD/sodipodi-0.dtd"
   xmlns:inkscape="http://www.inkscape.org/namespaces/inkscape"
   version="1.1"
   id="Layer_1"
   x="0px"
   y="0px"
   viewBox="0 0 129.5 33"
   xml:space="preserve"
   inkscape:version="0.91 r13725"
   sodipodi:docname="logo_icebrg.svg"
   width="129.5"
   height="33"><metadata
     id="metadata43"><rdf:RDF><cc:Work
         rdf:about=""><dc:format>image/svg+xml</dc:format><dc:type
           rdf:resource="http://purl.org/dc/dcmitype/StillImage" /><dc:title></dc:title></cc:Work></rdf:RDF></metadata><defs
     id="defs41" /><sodipodi:namedview
     pagecolor="#ffffff"
     bordercolor="#666666"
     borderopacity="1"
     objecttolerance="10"
     gridtolerance="10"
     guidetolerance="10"
     inkscape:pageopacity="0"
     inkscape:pageshadow="2"
     inkscape:window-width="1477"
     inkscape:window-height="838"
     id="namedview39"
     showgrid="false"
     fit-margin-top="5"
     fit-margin-bottom="5"
     fit-margin-left="5"
     fit-margin-right="5"
     inkscape:zoom="2.3838384"
     inkscape:cx="63.7"
     inkscape:cy="17"
     inkscape:window-x="20"
     inkscape:window-y="43"
     inkscape:window-maximized="0"
     inkscape:current-layer="Layer_1" /><style
     type="text/css"
     id="style3">
	.st0{fill:#FFFFFF;}
</style><g
     id="g5"
     transform="translate(-242.3,-380)"><rect
       x="282.29999"
       y="391.79999"
       class="st0"
       width="0.80000001"
       height="9.1999998"
       id="rect7"
       style="fill:#ffffff" /><path
       class="st0"
       d="m 301,399.2 c -0.7,0.8 -1.7,1.2 -2.9,1.2 -2.2,0 -3.8,-1.6 -3.8,-4 0,-2.3 1.5,-4 3.8,-4 1.3,0 2.3,0.6 2.8,1.2 l 0,0 0.5,-0.6 0,0 c -0.6,-0.6 -1.7,-1.3 -3.3,-1.3 -2.7,0 -4.6,2 -4.6,4.7 0,2.7 1.9,4.7 4.6,4.7 1.4,0 2.5,-0.5 3.4,-1.4 l 0,0 -0.5,-0.5 0,0 z"
       id="path9"
       inkscape:connector-curvature="0"
       style="fill:#ffffff" /><polygon
       class="st0"
       points="317.1,401 317.1,400.3 312.7,400.3 312.7,396.5 316.7,396.5 316.7,395.8 312.7,395.8 312.7,392.6 317,392.6 317,391.8 311.9,391.8 311.9,401 "
       id="polygon11"
       style="fill:#ffffff" /><path
       class="st0"
       d="m 331.7,396.1 c 0.8,-0.3 1.3,-1.1 1.3,-2 0,-0.8 -0.3,-1.4 -0.9,-1.9 -0.5,-0.4 -1.2,-0.5 -2.1,-0.5 l -2.1,0 0,9.2 2.5,0 c 1.1,0 1.8,-0.2 2.3,-0.6 0.7,-0.5 1,-1.2 1,-2 -0.1,-1 -0.8,-1.9 -2,-2.2 z m 1.1,2.4 c 0,0.6 -0.2,1.1 -0.8,1.5 -0.5,0.3 -1.1,0.4 -1.9,0.4 l -1.4,0 0,-3.7 1.4,0 c 0.7,0 1.4,0 1.9,0.4 0.6,0.3 0.8,0.7 0.8,1.4 z m -4.1,-2.6 0,-3.3 1.3,0 c 0.7,0 1.1,0.1 1.4,0.3 l 0,0 c 0.5,0.2 0.7,0.7 0.7,1.3 0,0.8 -0.4,1.2 -0.7,1.4 -0.3,0.2 -0.8,0.3 -1.6,0.3 l -1.1,0 z"
       id="path13"
       inkscape:connector-curvature="0"
       style="fill:#ffffff" /><path
       class="st0"
       d="m 348.8,394.3 c 0,-1.5 -1.1,-2.5 -2.9,-2.5 l -2.2,0 0,9.2 0.8,0 0,-4.2 1.1,0 2.7,4.2 1,0 -2.8,-4.3 c 1.5,-0.2 2.3,-1.1 2.3,-2.4 z m -4.2,-1.7 1,0 c 0.8,0 1.3,0 1.8,0.4 l 0,0 c 0.5,0.3 0.7,0.7 0.7,1.4 0,0.6 -0.2,1.1 -0.7,1.4 -0.5,0.3 -1,0.4 -1.8,0.4 l -1,0 0,-3.6 z"
       id="path15"
       inkscape:connector-curvature="0"
       style="fill:#ffffff" /><path
       class="st0"
       d="m 362.8,396.3 3.1,0.8 0,2.3 c -0.1,0.1 -1,1 -2.9,1 -2.3,0 -3.8,-1.6 -3.8,-4 0,-2.4 1.5,-4 3.7,-4 1.3,0 2.3,0.5 3.1,1.4 l 0,0 0.6,-0.6 0,0 c -0.3,-0.4 -1.4,-1.6 -3.6,-1.6 -2.6,0 -4.6,2 -4.6,4.7 0,2.7 2,4.8 4.6,4.8 2.6,0 3.8,-1.4 3.8,-1.4 l 0,0 0,-3.4 -4,0 z"
       id="path17"
       inkscape:connector-curvature="0"
       style="fill:#ffffff" /></g><g
     id="g19"
     transform="translate(-242.3,-380)"><path
       class="st0"
       d="m 258.8,408 -11.5,-11.5 11.5,-11.5 11.5,11.5 -11.5,11.5 z m -10.7,-11.5 10.7,10.7 10.7,-10.7 -10.7,-10.7 -10.7,10.7 z"
       id="path21"
       inkscape:connector-curvature="0"
       style="fill:#ffffff" /></g><g
     id="g23"
     transform="translate(-242.3,-380)"><polygon
       class="st0"
       points="250,396.5 250.4,396 258.9,404.5 267,396.5 258.5,388 258.9,387.5 267.9,396.5 258.9,405.4 "
       id="polygon25"
       style="fill:#ffffff" /></g><g
     id="g27"
     transform="translate(-242.3,-380)"><polygon
       class="st0"
       points="252.6,396.5 253,396 258.9,401.9 264.4,396.5 258.5,390.6 258.9,390.1 265.2,396.5 258.9,402.8 "
       id="polygon29"
       style="fill:#ffffff" /></g><g
     id="g31"
     transform="translate(-242.3,-380)"><polygon
       class="st0"
       points="255.3,396.5 255.7,396 259.1,399.4 262.1,396.5 258.7,393 259.1,392.6 262.9,396.5 259.1,400.3 "
       id="polygon33"
       style="fill:#ffffff" /></g><g
     id="g35"
     transform="translate(-242.3,-380)"><polygon
       class="st0"
       points="257.7,396.5 258.1,396.1 259.1,397.1 259.8,396.5 258.8,395.4 259.1,395.1 260.5,396.5 259.1,397.9 "
       id="polygon37"
       style="fill:#ffffff" /></g></svg>